<?xml version="1.0" encoding="utf-8"?>
<svg xmlns="http://www.w3.org/2000/svg" xmlns:xlink="http://www.w3.org/1999/xlink" width="424.765937pt" height="257.191016pt" viewBox="0 0 424.765937 257.191016" version="1.1" font-family="sans-serif">
<defs>
<style type="text/css">*{stroke-linejoin: round; stroke-linecap: butt}</style>
</defs>
<path d="M 0 257 L 425 257 L 425 0 L 0 0 z" style="fill:#ffffff"/>
<path d="M 60 221 L 418 221 L 418 21 L 60 21 z" style="fill:#ffffff"/>
<path d="M 60 212 L 254 212 L 254 174 L 60 174 z" style="fill:#1f6f8b"/>
<path d="M 60 164 L 255 164 L 255 126 L 60 126 z" style="fill:#1f6f8b"/>
<path d="M 60 116 L 270 116 L 270 78 L 60 78 z" style="fill:#1f6f8b"/>
<path d="M 60 69 L 291 69 L 291 30 L 60 30 z" style="fill:#1f6f8b"/>
<defs>
<path id="m06ac60c42d" d="M 0 0 L 0 4" style="stroke:#000000;stroke-width:0.8"/>
</defs>
<use xlink:href="#m06ac60c42d" x="60" y="221" style="stroke:#000000;stroke-width:0.8"/>
<text style="font-size:9px; text-anchor:middle" x="60" y="235">0</text>
<use xlink:href="#m06ac60c42d" x="139" y="221" style="stroke:#000000;stroke-width:0.8"/>
<text style="font-size:9px; text-anchor:middle" x="139" y="235">5000</text>
<use xlink:href="#m06ac60c42d" x="217" y="221" style="stroke:#000000;stroke-width:0.8"/>
<text style="font-size:9px; text-anchor:middle" x="217" y="235">10000</text>
<use xlink:href="#m06ac60c42d" x="295" y="221" style="stroke:#000000;stroke-width:0.8"/>
<text style="font-size:9px; text-anchor:middle" x="295" y="235">15000</text>
<use xlink:href="#m06ac60c42d" x="373" y="221" style="stroke:#000000;stroke-width:0.8"/>
<text style="font-size:9px; text-anchor:middle" x="373" y="235">20000</text>
<text style="font-size:9px; text-anchor:middle" x="239" y="248">Avg charges (USD)</text>
<defs>
<path id="m9ed1c8177e" d="M 0 0 L -4 0" style="stroke:#000000;stroke-width:0.8"/>
</defs>
<use xlink:href="#m9ed1c8177e" x="60" y="193" style="stroke:#000000;stroke-width:0.8"/>
<text style="font-size:9px; text-anchor:end" x="53" y="196">southwest</text>
<use xlink:href="#m9ed1c8177e" x="60" y="145" style="stroke:#000000;stroke-width:0.8"/>
<text style="font-size:9px; text-anchor:end" x="53" y="148">northwest</text>
<use xlink:href="#m9ed1c8177e" x="60" y="97" style="stroke:#000000;stroke-width:0.8"/>
<text style="font-size:9px; text-anchor:end" x="53" y="101">northeast</text>
<use xlink:href="#m9ed1c8177e" x="60" y="50" style="stroke:#000000;stroke-width:0.8"/>
<text style="font-size:9px; text-anchor:end" x="53" y="53">southeast</text>
<path d="M 60 221 L 60 21" style="fill:none;stroke:#000000;stroke-width:0.8;stroke-linejoin:miter;stroke-linecap:square"/>
<path d="M 60 221 L 418 221" style="fill:none;stroke:#000000;stroke-width:0.8;stroke-linejoin:miter;stroke-linecap:square"/>
<text style="font-size:7px; text-anchor:start" x="255" y="195">$12,347 | 17.9% smokers</text>
<text style="font-size:7px; text-anchor:start" x="257" y="147">$12,451 | 17.9% smokers</text>
<text style="font-size:7px; text-anchor:start" x="272" y="99">$13,406 | 20.7% smokers</text>
<text style="font-size:7px; text-anchor:start" x="293" y="51">$14,735 | 25.0% smokers</text>
<text style="font-size:10.8px; text-anchor:middle" x="239" y="15">Medical: region (southeast = most smokers)</text>
</svg>
